<svg width="75" height="16" viewBox="0 0 75 16" fill="none" xmlns="http://www.w3.org/2000/svg">
<path d="M10.56 5.4C10.3067 4.93333 9.94 4.58 9.46 4.34C8.99333 4.08667 8.44 3.96 7.8 3.96C6.69333 3.96 5.80667 4.32667 5.14 5.06C4.47333 5.78 4.14 6.74667 4.14 7.96C4.14 9.25333 4.48667 10.2667 5.18 11C5.88667 11.72 6.85333 12.08 8.08 12.08C8.92 12.08 9.62667 11.8667 10.2 11.44C10.7867 11.0133 11.2133 10.4 11.48 9.6H7.14V7.08H14.58V10.26C14.3267 11.1133 13.8933 11.9067 13.28 12.64C12.68 13.3733 11.9133 13.9667 10.98 14.42C10.0467 14.8733 8.99333 15.1 7.82 15.1C6.43333 15.1 5.19333 14.8 4.1 14.2C3.02 13.5867 2.17333 12.74 1.56 11.66C0.96 10.58 0.66 9.34667 0.66 7.96C0.66 6.57333 0.96 5.34 1.56 4.26C2.17333 3.16667 3.02 2.32 4.1 1.72C5.18 1.10667 6.41333 0.799999 7.8 0.799999C9.48 0.799999 10.8933 1.20667 12.04 2.02C13.2 2.83333 13.9667 3.96 14.34 5.4H10.56ZM21.5544 15.16C20.461 15.16 19.4744 14.9267 18.5944 14.46C17.7277 13.9933 17.041 13.3267 16.5344 12.46C16.041 11.5933 15.7944 10.58 15.7944 9.42C15.7944 8.27333 16.0477 7.26667 16.5544 6.4C17.061 5.52 17.7544 4.84667 18.6344 4.38C19.5144 3.91333 20.501 3.68 21.5944 3.68C22.6877 3.68 23.6744 3.91333 24.5544 4.38C25.4344 4.84667 26.1277 5.52 26.6344 6.4C27.141 7.26667 27.3944 8.27333 27.3944 9.42C27.3944 10.5667 27.1344 11.58 26.6144 12.46C26.1077 13.3267 25.4077 13.9933 24.5144 14.46C23.6344 14.9267 22.6477 15.16 21.5544 15.16ZM21.5544 12.2C22.2077 12.2 22.761 11.96 23.2144 11.48C23.681 11 23.9144 10.3133 23.9144 9.42C23.9144 8.52667 23.6877 7.84 23.2344 7.36C22.7944 6.88 22.2477 6.64 21.5944 6.64C20.9277 6.64 20.3744 6.88 19.9344 7.36C19.4944 7.82667 19.2744 8.51333 19.2744 9.42C19.2744 10.3133 19.4877 11 19.9144 11.48C20.3544 11.96 20.901 12.2 21.5544 12.2ZM36.3688 15L33.4488 9.7H32.6288V15H29.2088V0.96H34.9488C36.0554 0.96 36.9954 1.15333 37.7688 1.54C38.5554 1.92667 39.1421 2.46 39.5288 3.14C39.9154 3.80667 40.1088 4.55333 40.1088 5.38C40.1088 6.31333 39.8421 7.14667 39.3088 7.88C38.7888 8.61333 38.0154 9.13333 36.9888 9.44L40.2288 15H36.3688ZM32.6288 7.28H34.7488C35.3754 7.28 35.8421 7.12667 36.1488 6.82C36.4688 6.51333 36.6288 6.08 36.6288 5.52C36.6288 4.98667 36.4688 4.56667 36.1488 4.26C35.8421 3.95333 35.3754 3.8 34.7488 3.8H32.6288V7.28ZM52.7756 9.24C52.7756 9.56 52.7556 9.89333 52.7156 10.24H44.9756C45.029 10.9333 45.249 11.4667 45.6356 11.84C46.0356 12.2 46.5223 12.38 47.0956 12.38C47.949 12.38 48.5423 12.02 48.8756 11.3H52.5156C52.329 12.0333 51.989 12.6933 51.4956 13.28C51.0156 13.8667 50.409 14.3267 49.6756 14.66C48.9423 14.9933 48.1223 15.16 47.2156 15.16C46.1223 15.16 45.149 14.9267 44.2956 14.46C43.4423 13.9933 42.7756 13.3267 42.2956 12.46C41.8156 11.5933 41.5756 10.58 41.5756 9.42C41.5756 8.26 41.809 7.24667 42.2756 6.38C42.7556 5.51333 43.4223 4.84667 44.2756 4.38C45.129 3.91333 46.109 3.68 47.2156 3.68C48.2956 3.68 49.2556 3.90667 50.0956 4.36C50.9356 4.81333 51.589 5.46 52.0556 6.3C52.5356 7.14 52.7756 8.12 52.7756 9.24ZM49.2756 8.34C49.2756 7.75333 49.0756 7.28667 48.6756 6.94C48.2756 6.59333 47.7756 6.42 47.1756 6.42C46.6023 6.42 46.1156 6.58667 45.7156 6.92C45.329 7.25333 45.089 7.72667 44.9956 8.34H49.2756ZM61.3798 3.72C62.6865 3.72 63.7265 4.14667 64.4998 5C65.2865 5.84 65.6798 7 65.6798 8.48V15H62.2798V8.94C62.2798 8.19333 62.0865 7.61333 61.6998 7.2C61.3132 6.78667 60.7932 6.58 60.1398 6.58C59.4865 6.58 58.9665 6.78667 58.5798 7.2C58.1932 7.61333 57.9998 8.19333 57.9998 8.94V15H54.5798V3.84H57.9998V5.32C58.3465 4.82667 58.8132 4.44 59.3998 4.16C59.9865 3.86667 60.6465 3.72 61.3798 3.72ZM74.2764 12.1V15H72.5364C71.2964 15 70.3297 14.7 69.6364 14.1C68.9431 13.4867 68.5964 12.4933 68.5964 11.12V6.68H67.2364V3.84H68.5964V1.12H72.0164V3.84H74.2564V6.68H72.0164V11.16C72.0164 11.4933 72.0964 11.7333 72.2564 11.88C72.4164 12.0267 72.6831 12.1 73.0564 12.1H74.2764Z" fill="white"/>
<path d="M10.56 5.4C10.3067 4.93333 9.94 4.58 9.46 4.34C8.99333 4.08667 8.44 3.96 7.8 3.96C6.69333 3.96 5.80667 4.32667 5.14 5.06C4.47333 5.78 4.14 6.74667 4.14 7.96C4.14 9.25333 4.48667 10.2667 5.18 11C5.88667 11.72 6.85333 12.08 8.08 12.08C8.92 12.08 9.62667 11.8667 10.2 11.44C10.7867 11.0133 11.2133 10.4 11.48 9.6H7.14V7.08H14.58V10.26C14.3267 11.1133 13.8933 11.9067 13.28 12.64C12.68 13.3733 11.9133 13.9667 10.98 14.42C10.0467 14.8733 8.99333 15.1 7.82 15.1C6.43333 15.1 5.19333 14.8 4.1 14.2C3.02 13.5867 2.17333 12.74 1.56 11.66C0.96 10.58 0.66 9.34667 0.66 7.96C0.66 6.57333 0.96 5.34 1.56 4.26C2.17333 3.16667 3.02 2.32 4.1 1.72C5.18 1.10667 6.41333 0.799999 7.8 0.799999C9.48 0.799999 10.8933 1.20667 12.04 2.02C13.2 2.83333 13.9667 3.96 14.34 5.4H10.56ZM21.5544 15.16C20.461 15.16 19.4744 14.9267 18.5944 14.46C17.7277 13.9933 17.041 13.3267 16.5344 12.46C16.041 11.5933 15.7944 10.58 15.7944 9.42C15.7944 8.27333 16.0477 7.26667 16.5544 6.4C17.061 5.52 17.7544 4.84667 18.6344 4.38C19.5144 3.91333 20.501 3.68 21.5944 3.68C22.6877 3.68 23.6744 3.91333 24.5544 4.38C25.4344 4.84667 26.1277 5.52 26.6344 6.4C27.141 7.26667 27.3944 8.27333 27.3944 9.42C27.3944 10.5667 27.1344 11.58 26.6144 12.46C26.1077 13.3267 25.4077 13.9933 24.5144 14.46C23.6344 14.9267 22.6477 15.16 21.5544 15.16ZM21.5544 12.2C22.2077 12.2 22.761 11.96 23.2144 11.48C23.681 11 23.9144 10.3133 23.9144 9.42C23.9144 8.52667 23.6877 7.84 23.2344 7.36C22.7944 6.88 22.2477 6.64 21.5944 6.64C20.9277 6.64 20.3744 6.88 19.9344 7.36C19.4944 7.82667 19.2744 8.51333 19.2744 9.42C19.2744 10.3133 19.4877 11 19.9144 11.48C20.3544 11.96 20.901 12.2 21.5544 12.2ZM36.3688 15L33.4488 9.7H32.6288V15H29.2088V0.96H34.9488C36.0554 0.96 36.9954 1.15333 37.7688 1.54C38.5554 1.92667 39.1421 2.46 39.5288 3.14C39.9154 3.80667 40.1088 4.55333 40.1088 5.38C40.1088 6.31333 39.8421 7.14667 39.3088 7.88C38.7888 8.61333 38.0154 9.13333 36.9888 9.44L40.2288 15H36.3688ZM32.6288 7.28H34.7488C35.3754 7.28 35.8421 7.12667 36.1488 6.82C36.4688 6.51333 36.6288 6.08 36.6288 5.52C36.6288 4.98667 36.4688 4.56667 36.1488 4.26C35.8421 3.95333 35.3754 3.8 34.7488 3.8H32.6288V7.28ZM52.7756 9.24C52.7756 9.56 52.7556 9.89333 52.7156 10.24H44.9756C45.029 10.9333 45.249 11.4667 45.6356 11.84C46.0356 12.2 46.5223 12.38 47.0956 12.38C47.949 12.38 48.5423 12.02 48.8756 11.3H52.5156C52.329 12.0333 51.989 12.6933 51.4956 13.28C51.0156 13.8667 50.409 14.3267 49.6756 14.66C48.9423 14.9933 48.1223 15.16 47.2156 15.16C46.1223 15.16 45.149 14.9267 44.2956 14.46C43.4423 13.9933 42.7756 13.3267 42.2956 12.46C41.8156 11.5933 41.5756 10.58 41.5756 9.42C41.5756 8.26 41.809 7.24667 42.2756 6.38C42.7556 5.51333 43.4223 4.84667 44.2756 4.38C45.129 3.91333 46.109 3.68 47.2156 3.68C48.2956 3.68 49.2556 3.90667 50.0956 4.36C50.9356 4.81333 51.589 5.46 52.0556 6.3C52.5356 7.14 52.7756 8.12 52.7756 9.24ZM49.2756 8.34C49.2756 7.75333 49.0756 7.28667 48.6756 6.94C48.2756 6.59333 47.7756 6.42 47.1756 6.42C46.6023 6.42 46.1156 6.58667 45.7156 6.92C45.329 7.25333 45.089 7.72667 44.9956 8.34H49.2756ZM61.3798 3.72C62.6865 3.72 63.7265 4.14667 64.4998 5C65.2865 5.84 65.6798 7 65.6798 8.48V15H62.2798V8.94C62.2798 8.19333 62.0865 7.61333 61.6998 7.2C61.3132 6.78667 60.7932 6.58 60.1398 6.58C59.4865 6.58 58.9665 6.78667 58.5798 7.2C58.1932 7.61333 57.9998 8.19333 57.9998 8.94V15H54.5798V3.84H57.9998V5.32C58.3465 4.82667 58.8132 4.44 59.3998 4.16C59.9865 3.86667 60.6465 3.72 61.3798 3.72ZM74.2764 12.1V15H72.5364C71.2964 15 70.3297 14.7 69.6364 14.1C68.9431 13.4867 68.5964 12.4933 68.5964 11.12V6.68H67.2364V3.84H68.5964V1.12H72.0164V3.84H74.2564V6.68H72.0164V11.16C72.0164 11.4933 72.0964 11.7333 72.2564 11.88C72.4164 12.0267 72.6831 12.1 73.0564 12.1H74.2764Z" fill="url(#paint0_linear_1_17)"/>
<defs>
<linearGradient id="paint0_linear_1_17" x1="17.1103" y1="-22.1648" x2="70.9315" y2="22.4283" gradientUnits="userSpaceOnUse">
<stop stop-color="#17C2ED"/>
<stop offset="1" stop-color="#1C7DD7"/>
</linearGradient>
</defs>
</svg>
